<svg xmlns="http://www.w3.org/2000/svg" width="512" height="512" viewBox="0 0 512 512" style="" data-svgdocument="" id="_lozZXmrQ4Bjc2v8Jjk5tP" class="fl-svgdocument" x="0" y="0" overflow="hidden" data-bbox="10.842 10.843 490.315 490.315">
  <g transform="matrix(0.7196407439716405, 0, 0, 0.7196407439716405, 10.842386553661203, 11.799456409004993)">
    <path d="m376.5 385.273438-105-60v126.199218l105 60.527344zm0 0" transform="matrix(1.330729764455428, 0, 0, 1.330729764455428, -0.6655179161506208, -1.330729764455428)" />
    <path d="m406.5 512 97.707031-55.855469c5.082031-2.546875 8.292969-7.734375 8.292969-13.417969v-117.449218l-106 59.996094zm0 0" transform="matrix(1.330729764455428, 0, 0, 1.330729764455428, -0.6655179161506208, -1.330729764455428)" />
    <path d="m250.410156 1.292969-104.089844 54.34375 110.179688 62.589843 110.179688-62.589843-104.089844-54.34375c-3.875-1.722657-8.304688-1.722657-12.179688 0zm0 0" transform="matrix(1.330729764455428, 0, 0, 1.330729764455428, -0.6655179161506208, -1.330729764455428)" />
    <path d="m502.90625 296.203125-111.40625-55.203125-110.40625 55.203125 110.40625 63.097656zm0 0" transform="matrix(1.330729764455428, 0, 0, 1.330729764455428, -0.6655179161506208, -1.330729764455428)" />
    <path d="m8.789062 456.144531 97.710938 55.855469v-126.726562l-106-60v117.453124c0 5.683594 3.207031 10.871094 8.289062 13.417969zm0 0" transform="matrix(1.330729764455428, 0, 0, 1.330729764455428, -0.6655179161506208, -1.330729764455428)" />
    <path d="m136.5 512 105-60.203125v-126.519531l-105 59.996094zm0 0" transform="matrix(1.330729764455428, 0, 0, 1.330729764455428, -0.6655179161506208, -1.330729764455428)" />
    <path d="m10.09375 296.203125 111.40625 63.097656 110.40625-63.097656-110.40625-55.203125zm0 0" transform="matrix(1.330729764455428, 0, 0, 1.330729764455428, -0.6655179161506208, -1.330729764455428)" />
    <path d="m271.5 267.46875 105-52.511719v-130.679687l-105 59.996094zm0 0" transform="matrix(1.330729764455428, 0, 0, 1.330729764455428, -0.6655179161506208, -1.330729764455428)" />
    <path d="m136.5 214.957031 105 52.511719v-123.195312l-105-60zm0 0" transform="matrix(1.330729764455428, 0, 0, 1.330729764455428, -0.6655179161506208, -1.330729764455428)" />
  </g>
</svg>